HIERARCHY
ROOT newVegas:Hips
{
	OFFSET 0.000000 96.479958 0.000000
	CHANNELS 6 Xposition Yposition Zposition Xrotation Yrotation Zrotation
	JOINT newVegas:Pelvis
	{
		OFFSET 0.000000 0.000000 0.000000
		CHANNELS 3 Xrotation Yrotation Zrotation
		JOINT newVegas:LeftUpLeg
		{
			OFFSET 18.735201 -5.666702 -4.541200
			CHANNELS 3 Xrotation Yrotation Zrotation
			JOINT newVegas:LeftLeg
			{
				OFFSET -0.021200 -31.938179 0.493100
				CHANNELS 3 Xrotation Yrotation Zrotation
				JOINT newVegas:LeftFoot
				{
					OFFSET 0.021200 -31.938179 -4.336299
					CHANNELS 3 Xrotation Yrotation Zrotation
					JOINT newVegas:LeftToeBase
					{
						OFFSET 0.943001 -26.722000 15.023500
						CHANNELS 3 Xrotation Yrotation Zrotation
						End Site
						{
							OFFSET 0.000000 30.670183 0.000000
						}
					}
				}
				JOINT newVegas:Left_PantLeg
				{
					OFFSET 0.663870 -9.044666 -1.108900
					CHANNELS 3 Xrotation Yrotation Zrotation
					End Site
					{
						OFFSET 1.415995 20.635357 0.000000
					}
				}
			}
		}
		JOINT newVegas:RightUpLeg
		{
			OFFSET -18.735201 -5.666702 -4.541200
			CHANNELS 3 Xrotation Yrotation Zrotation
			JOINT newVegas:RightLeg
			{
				OFFSET 0.018946 -31.938133 0.493100
				CHANNELS 3 Xrotation Yrotation Zrotation
				JOINT newVegas:RightFoot
				{
					OFFSET -0.018946 -31.938126 -4.336299
					CHANNELS 3 Xrotation Yrotation Zrotation
					JOINT newVegas:RightToeBase
					{
						OFFSET -0.943001 -26.722004 15.023500
						CHANNELS 3 Xrotation Yrotation Zrotation
						End Site
						{
							OFFSET 0.000000 30.670187 0.000000
						}
					}
				}
				JOINT newVegas:Right_PantLeg
				{
					OFFSET -0.661674 -9.044716 -1.108900
					CHANNELS 3 Xrotation Yrotation Zrotation
					End Site
					{
						OFFSET -1.415958 20.635269 0.000000
					}
				}
			}
		}
	}
	JOINT newVegas:Spine
	{
		OFFSET 0.000000 10.199997 -0.299500
		CHANNELS 3 Xrotation Yrotation Zrotation
		JOINT newVegas:Spine1
		{
			OFFSET 0.000000 11.900002 -1.516600
			CHANNELS 3 Xrotation Yrotation Zrotation
			JOINT newVegas:Spine2
			{
				OFFSET 0.000000 13.600006 -2.842500
				CHANNELS 3 Xrotation Yrotation Zrotation
				JOINT newVegas:Neck
				{
					OFFSET 0.000000 9.624100 -2.890100
					CHANNELS 3 Xrotation Yrotation Zrotation
					JOINT newVegas:Head
					{
						OFFSET 0.000000 14.068802 -1.351900
						CHANNELS 3 Xrotation Yrotation Zrotation
						JOINT newVegas:Hair_Back
						{
							OFFSET 0.000000 3.231903 -17.524799
							CHANNELS 3 Xrotation Yrotation Zrotation
							End Site
							{
								OFFSET 0.000000 19.849884 0.000000
							}
						}
						JOINT newVegas:Hair_Front
						{
							OFFSET 0.000000 31.260406 4.573800
							CHANNELS 3 Xrotation Yrotation Zrotation
							JOINT newVegas:Hair_Front1
							{
								OFFSET 0.000000 2.284103 11.993300
								CHANNELS 3 Xrotation Yrotation Zrotation
								JOINT newVegas:Hair_Front2
								{
									OFFSET 0.000000 2.284103 11.993300
									CHANNELS 3 Xrotation Yrotation Zrotation
									End Site
									{
										OFFSET 0.000000 12.208862 0.000000
									}
								}
							}
						}
						JOINT newVegas:Jowel
						{
							OFFSET 0.000000 -7.458206 6.864100
							CHANNELS 3 Xrotation Yrotation Zrotation
							End Site
							{
								OFFSET 0.000000 19.849884 0.000000
							}
						}
					}
				}
				JOINT newVegas:LeftShoulder
				{
					OFFSET 15.263000 10.923401 -0.547700
					CHANNELS 3 Xrotation Yrotation Zrotation
					JOINT newVegas:LeftArm
					{
						OFFSET 25.438599 -2.830597 -13.032500
						CHANNELS 3 Xrotation Yrotation Zrotation
						JOINT newVegas:LeftForeArm
						{
							OFFSET 29.960503 0.000000 0.000000
							CHANNELS 3 Xrotation Yrotation Zrotation
							JOINT newVegas:LeftHand
							{
								OFFSET 27.849251 0.000000 0.000000
								CHANNELS 3 Xrotation Yrotation Zrotation
								JOINT newVegas:LeftHandThumb1
								{
									OFFSET 4.487587 -3.305161 6.305391
									CHANNELS 3 Xrotation Yrotation Zrotation
									JOINT newVegas:LeftHandThumb2
									{
										OFFSET 5.480453 -3.164139 3.164143
										CHANNELS 3 Xrotation Yrotation Zrotation
										JOINT newVegas:LeftHandThumb3
										{
											OFFSET 5.159721 -2.978973 2.978967
											CHANNELS 3 Xrotation Yrotation Zrotation
											End Site
											{
												OFFSET 2.494507 5.926697 1.738678
											}
										}
									}
								}
								JOINT newVegas:LeftHandIndex1
								{
									OFFSET 18.578728 -0.527832 5.208049
									CHANNELS 3 Xrotation Yrotation Zrotation
									JOINT newVegas:LeftHandIndex2
									{
										OFFSET 3.192009 0.000000 0.000000
										CHANNELS 3 Xrotation Yrotation Zrotation
										JOINT newVegas:LeftHandIndex3
										{
											OFFSET 3.835129 0.000000 0.000000
											CHANNELS 3 Xrotation Yrotation Zrotation
											End Site
											{
												OFFSET -0.034599 3.816971 0.371180
											}
										}
									}
								}
								JOINT newVegas:LeftHandMiddle1
								{
									OFFSET 18.476105 0.000000 0.000000
									CHANNELS 3 Xrotation Yrotation Zrotation
									JOINT newVegas:LeftHandMiddle2
									{
										OFFSET 3.324875 0.000000 0.000000
										CHANNELS 3 Xrotation Yrotation Zrotation
										JOINT newVegas:LeftHandMiddle3
										{
											OFFSET 4.596550 0.000000 0.000000
											CHANNELS 3 Xrotation Yrotation Zrotation
											End Site
											{
												OFFSET 0.057701 4.578827 0.399218
											}
										}
									}
								}
								JOINT newVegas:LeftHandRing1
								{
									OFFSET 17.732719 0.121887 -4.201567
									CHANNELS 3 Xrotation Yrotation Zrotation
									JOINT newVegas:LeftHandRing2
									{
										OFFSET 2.733170 0.000000 0.000000
										CHANNELS 3 Xrotation Yrotation Zrotation
										JOINT newVegas:LeftHandRing3
										{
											OFFSET 3.178268 0.000000 0.000000
											CHANNELS 3 Xrotation Yrotation Zrotation
											End Site
											{
												OFFSET 0.119102 3.170624 0.185394
											}
										}
									}
								}
								JOINT newVegas:LeftHandPinky1
								{
									OFFSET 15.989624 -0.606689 -7.535461
									CHANNELS 3 Xrotation Yrotation Zrotation
									JOINT newVegas:LeftHandPinky2
									{
										OFFSET 2.538986 0.000000 0.000000
										CHANNELS 3 Xrotation Yrotation Zrotation
										JOINT newVegas:LeftHandPinky3
										{
											OFFSET 2.593102 0.000000 0.000000
											CHANNELS 3 Xrotation Yrotation Zrotation
											End Site
											{
												OFFSET -0.150902 2.584198 0.152708
											}
										}
									}
								}
							}
							JOINT newVegas:Left_Sleeve
							{
								OFFSET 0.267448 -0.649796 0.577675
								CHANNELS 3 Xrotation Yrotation Zrotation
								End Site
								{
									OFFSET 0.000000 15.991241 0.000000
								}
							}
							JOINT newVegas:Left_CapeC
							{
								OFFSET 15.715958 -8.608795 -6.935905
								CHANNELS 3 Xrotation Yrotation Zrotation
								JOINT newVegas:Left_CapeC1
								{
									OFFSET 0.000000 -8.688499 0.000000
									CHANNELS 3 Xrotation Yrotation Zrotation
									End Site
									{
										OFFSET 0.000000 8.688499 0.000000
									}
								}
							}
						}
						JOINT newVegas:Left_CapeB
						{
							OFFSET 26.118385 -8.608795 -7.079235
							CHANNELS 3 Xrotation Yrotation Zrotation
							JOINT newVegas:Left_CapeB1
							{
								OFFSET 0.000000 -8.688499 0.000000
								CHANNELS 3 Xrotation Yrotation Zrotation
								End Site
								{
									OFFSET 0.000000 8.688499 0.000000
								}
							}
						}
						JOINT newVegas:Left_CapeA
						{
							OFFSET 5.115639 -8.608795 -10.395809
							CHANNELS 3 Xrotation Yrotation Zrotation
							JOINT newVegas:Left_CapeA1
							{
								OFFSET 0.000000 -8.688499 0.000000
								CHANNELS 3 Xrotation Yrotation Zrotation
								End Site
								{
									OFFSET 0.000000 8.688499 0.000000
								}
							}
						}
					}
				}
				JOINT newVegas:RightShoulder
				{
					OFFSET -15.263000 10.923401 -0.547700
					CHANNELS 3 Xrotation Yrotation Zrotation
					JOINT newVegas:RightArm
					{
						OFFSET -25.438599 -2.830597 -13.032500
						CHANNELS 3 Xrotation Yrotation Zrotation
						JOINT newVegas:RightForeArm
						{
							OFFSET -29.960503 0.000000 0.000000
							CHANNELS 3 Xrotation Yrotation Zrotation
							JOINT newVegas:RightHand
							{
								OFFSET -27.849251 0.000000 0.000000
								CHANNELS 3 Xrotation Yrotation Zrotation
								JOINT newVegas:RightHandThumb1
								{
									OFFSET -4.487587 -3.305161 6.305391
									CHANNELS 3 Xrotation Yrotation Zrotation
									JOINT newVegas:RightHandThumb2
									{
										OFFSET -5.480453 -3.164139 3.164143
										CHANNELS 3 Xrotation Yrotation Zrotation
										JOINT newVegas:RightHandThumb3
										{
											OFFSET -5.159721 -2.978973 2.978967
											CHANNELS 3 Xrotation Yrotation Zrotation
											End Site
											{
												OFFSET -2.494507 5.926697 1.738678
											}
										}
									}
								}
								JOINT newVegas:RightHandIndex1
								{
									OFFSET -18.578728 -0.527832 5.208049
									CHANNELS 3 Xrotation Yrotation Zrotation
									JOINT newVegas:RightHandIndex2
									{
										OFFSET -3.192009 0.000000 0.000000
										CHANNELS 3 Xrotation Yrotation Zrotation
										JOINT newVegas:RightHandIndex3
										{
											OFFSET -3.835129 0.000000 0.000000
											CHANNELS 3 Xrotation Yrotation Zrotation
											End Site
											{
												OFFSET 0.034599 3.816971 0.371180
											}
										}
									}
								}
								JOINT newVegas:RightHandMiddle1
								{
									OFFSET -18.476105 0.000000 0.000000
									CHANNELS 3 Xrotation Yrotation Zrotation
									JOINT newVegas:RightHandMiddle2
									{
										OFFSET -3.324875 0.000000 0.000000
										CHANNELS 3 Xrotation Yrotation Zrotation
										JOINT newVegas:RightHandMiddle3
										{
											OFFSET -4.596550 0.000000 0.000000
											CHANNELS 3 Xrotation Yrotation Zrotation
											End Site
											{
												OFFSET -0.057701 4.578827 0.399218
											}
										}
									}
								}
								JOINT newVegas:RightHandRing1
								{
									OFFSET -17.732719 0.121887 -4.201567
									CHANNELS 3 Xrotation Yrotation Zrotation
									JOINT newVegas:RightHandRing2
									{
										OFFSET -2.733170 0.000000 0.000000
										CHANNELS 3 Xrotation Yrotation Zrotation
										JOINT newVegas:RightHandRing3
										{
											OFFSET -3.178268 0.000000 0.000000
											CHANNELS 3 Xrotation Yrotation Zrotation
											End Site
											{
												OFFSET -0.119102 3.170624 0.185394
											}
										}
									}
								}
								JOINT newVegas:RightHandPinky1
								{
									OFFSET -15.989624 -0.606689 -7.535461
									CHANNELS 3 Xrotation Yrotation Zrotation
									JOINT newVegas:RightHandPinky2
									{
										OFFSET -2.538986 0.000000 0.000000
										CHANNELS 3 Xrotation Yrotation Zrotation
										JOINT newVegas:RightHandPinky3
										{
											OFFSET -2.593102 0.000000 0.000000
											CHANNELS 3 Xrotation Yrotation Zrotation
											End Site
											{
												OFFSET 0.150902 2.584198 0.152708
											}
										}
									}
								}
							}
							JOINT newVegas:Right_CapeC
							{
								OFFSET -15.715958 -8.608795 -6.935905
								CHANNELS 3 Xrotation Yrotation Zrotation
								JOINT newVegas:Right_CapeC1
								{
									OFFSET 0.000000 -8.688499 0.000000
									CHANNELS 3 Xrotation Yrotation Zrotation
									End Site
									{
										OFFSET 0.000000 8.688499 0.000000
									}
								}
							}
							JOINT newVegas:Right_Sleeve
							{
								OFFSET -0.267448 -0.649994 0.577675
								CHANNELS 3 Xrotation Yrotation Zrotation
								End Site
								{
									OFFSET 0.000000 15.991302 0.000000
								}
							}
						}
						JOINT newVegas:Right_CapeA
						{
							OFFSET -5.115540 -8.608795 -10.395824
							CHANNELS 3 Xrotation Yrotation Zrotation
							JOINT newVegas:Right_CapeA1
							{
								OFFSET 0.000000 -8.688499 0.000000
								CHANNELS 3 Xrotation Yrotation Zrotation
								End Site
								{
									OFFSET 0.000000 8.688499 0.000000
								}
							}
						}
						JOINT newVegas:Right_CapeB
						{
							OFFSET -26.118187 -8.608795 -7.079266
							CHANNELS 3 Xrotation Yrotation Zrotation
							JOINT newVegas:Right_CapeB1
							{
								OFFSET 0.000000 -8.688499 0.000000
								CHANNELS 3 Xrotation Yrotation Zrotation
								End Site
								{
									OFFSET 0.000000 8.688499 0.000000
								}
							}
						}
					}
				}
				JOINT newVegas:Left_Collar
				{
					OFFSET 18.625099 8.655502 8.828100
					CHANNELS 3 Xrotation Yrotation Zrotation
					JOINT newVegas:Left_Collar1
					{
						OFFSET 14.783401 10.540405 -1.259500
						CHANNELS 3 Xrotation Yrotation Zrotation
						End Site
						{
							OFFSET 0.000000 18.199875 0.000000
						}
					}
				}
				JOINT newVegas:Collar_Back
				{
					OFFSET 0.000000 15.630707 -20.132601
					CHANNELS 3 Xrotation Yrotation Zrotation
					End Site
					{
						OFFSET 0.000000 22.523010 0.000000
					}
				}
				JOINT newVegas:Left_Peck
				{
					OFFSET 17.239599 -5.132599 25.482599
					CHANNELS 3 Xrotation Yrotation Zrotation
					End Site
					{
						OFFSET 0.000000 22.523010 0.000000
					}
				}
				JOINT newVegas:Right_Peck
				{
					OFFSET -17.239599 -5.132202 25.482599
					CHANNELS 3 Xrotation Yrotation Zrotation
					End Site
					{
						OFFSET 0.000000 22.523010 0.000000
					}
				}
				JOINT newVegas:Right_Collar
				{
					OFFSET -18.625099 8.655792 8.828100
					CHANNELS 3 Xrotation Yrotation Zrotation
					JOINT newVegas:Right_Collar1
					{
						OFFSET -14.783401 10.539993 -1.259500
						CHANNELS 3 Xrotation Yrotation Zrotation
						End Site
						{
							OFFSET 0.000000 18.199631 0.000000
						}
					}
				}
			}
		}
		JOINT newVegas:Belly
		{
			OFFSET 0.000000 -6.540398 9.014299
			CHANNELS 3 Xrotation Yrotation Zrotation
			End Site
			{
				OFFSET 0.000000 11.566666 0.000000
			}
		}
	}
	JOINT newVegas:ElvisFacialAnim_Joint
	{
		OFFSET 1.000000 -95.330101 -8.825800
		CHANNELS 3 Xrotation Yrotation Zrotation
		End Site
		{
			OFFSET 0.000000 35.315800 0.000000
		}
	}
}
MOTION
Frames: 4
Frame Time: 0.016667
67.949982 92.314697 156.116531 -3.480743 42.923542 8.011187 0.000000 0.000000 0.000000 -24.913615 13.491389 -15.014371 34.384497 -9.717615 -0.474158 23.319487 0.356651 16.104343 -0.000000 0.000002 -0.000001 -0.000000 -0.000001 -0.000000 -30.833113 13.189558 3.483570 50.990501 -7.973598 -0.700065 42.027687 -7.155665 -9.269502 -0.000000 0.000000 -0.000000 0.000001 0.000001 -0.000000 2.652011 -1.125623 -6.126179 -1.325620 -1.163658 0.817525 -1.438974 -1.086690 0.916037 -1.416349 0.674325 0.263270 -1.416348 0.674308 0.263270 -0.000000 0.000000 -0.000000 -1.416350 0.674331 0.263271 -1.416278 0.674311 0.263270 0.000000 -0.000000 0.000000 -0.000000 0.000000 0.000000 1.278785 8.282248 -5.884512 5.487400 -5.716211 -69.262599 10.995043 -23.144448 4.299479 -3.505221 1.553096 -4.566426 10.887909 1.246825 25.518096 -6.107979 25.101686 -7.037439 0.000002 0.000000 -0.000004 2.273936 2.860327 -7.022233 -2.151798 2.437466 -12.915094 0.000001 -0.000001 -0.000001 -1.975878 5.648605 -12.925016 0.258613 5.087078 -31.070322 -0.000003 -0.000002 -0.000002 -4.961677 10.079266 -11.366440 4.009615 4.047728 -37.672622 0.000001 0.000001 0.000002 -6.453033 11.290884 -20.815879 10.729971 2.574855 -38.101643 -0.000002 -0.000003 -0.000002 0.000003 0.000001 -0.000000 0.000003 0.000001 -0.000000 0.000002 0.000001 -0.000000 -0.000002 -0.000001 -0.000000 -0.000002 0.000000 -0.000001 -0.000002 -0.000001 -0.000000 -0.000003 0.000000 -0.000001 0.653105 6.246608 2.354861 1.709283 -0.054530 76.942081 10.204139 11.314872 -3.125139 0.035606 4.570846 -3.022555 10.804400 -0.128344 -25.394988 -5.935892 -25.377865 7.041881 0.000002 -0.000000 -0.000002 2.290260 -3.071424 7.871203 -2.151268 -2.429205 14.934058 0.000002 -0.000000 -0.000001 -1.974379 -5.650451 14.486247 0.269454 -5.094371 31.329723 -0.000004 0.000000 -0.000001 -4.965992 -10.089013 12.710213 4.004653 -4.055504 37.979957 0.000003 0.000002 -0.000001 -6.445524 -11.295037 22.248670 10.719201 -2.567185 37.975176 -0.000002 -0.000000 0.000002 0.000001 0.000001 -0.000001 -0.000002 -0.000001 -0.000000 0.000001 0.000000 -0.000001 0.000000 -0.000001 0.000000 0.000001 0.000000 0.000001 0.000000 -0.000001 0.000000 0.000001 -0.000000 0.000001 -0.000000 -0.000000 0.000000 -0.000000 -0.000000 0.000000 -0.000000 -0.000000 0.000000 -0.000000 -0.000000 0.000000 -0.000000 -0.000000 0.000000 -0.000000 -0.000000 0.000000 -0.000000 -0.000000 0.000000 -0.000000 -0.000000 -0.000000 0.000000 0.000000 0.000000 
68.738266 92.653496 157.190079 -3.103755 44.103976 7.254135 -0.000000 0.000000 -0.000001 -24.008805 13.383914 -14.424275 34.675095 -10.362583 -0.468496 21.695377 0.147682 16.397290 -0.000000 0.000000 -0.000000 0.000001 0.000002 -0.000001 -32.925620 14.265570 3.958767 49.058985 -8.269412 -0.718389 42.408597 -6.762819 -7.707957 0.000002 0.000000 -0.000000 0.000001 -0.000000 -0.000001 3.177640 -1.377690 -6.135602 -1.672385 -1.446837 1.136367 -1.783761 -1.357284 1.239756 -1.390227 0.642381 0.323234 -1.390226 0.642382 0.323234 -0.000001 -0.000002 0.000000 -1.390226 0.642383 0.323235 -1.390225 0.642373 0.323232 -0.000000 0.000001 -0.000000 -0.000001 -0.000002 0.000000 1.222378 7.998277 -5.656146 4.902282 -6.661225 -69.184926 10.630493 -23.193331 4.158762 -3.663199 1.608662 -4.129035 10.909334 1.522083 25.549723 -6.151168 25.034120 -7.036825 -0.000001 -0.000003 -0.000005 2.269690 2.808448 -6.812894 -2.151584 2.437653 -12.417620 0.000001 0.000001 -0.000000 -1.976490 5.649589 -12.540121 0.258747 5.086666 -31.006528 0.000002 0.000001 0.000002 -4.961844 10.080333 -11.034826 4.009667 4.047388 -37.596807 0.000000 -0.000004 0.000001 -6.453593 11.291866 -20.462847 10.729406 2.575060 -38.132441 -0.000001 -0.000003 0.000001 -0.000001 -0.000001 0.000002 -0.000001 -0.000001 0.000002 -0.000002 -0.000000 0.000002 -0.000004 -0.000001 0.000001 -0.000004 0.000000 0.000000 -0.000004 -0.000001 0.000001 -0.000006 -0.000000 0.000001 0.631578 5.767205 2.506481 2.266439 -0.402032 76.731308 9.995579 11.382988 -3.177988 0.011997 4.430588 -2.802320 10.782470 0.147469 -25.365091 -5.892669 -25.445462 7.042864 -0.000000 0.000000 -0.000000 2.295232 -3.123453 8.080475 -2.151248 -2.429909 15.431634 0.000003 0.000001 0.000000 -1.974504 -5.650699 14.871118 0.269472 -5.094356 31.393493 -0.000001 -0.000003 -0.000001 -4.966631 -10.089644 13.041877 4.004889 -4.055845 38.055792 0.000001 0.000001 -0.000003 -6.446279 -11.296304 22.601694 10.719373 -2.567254 37.944409 0.000000 -0.000000 -0.000002 0.000000 -0.000000 0.000001 0.000000 0.000000 -0.000000 0.000000 -0.000000 0.000001 -0.000000 0.000000 0.000000 -0.000000 0.000000 0.000000 -0.000000 0.000000 0.000000 0.000000 -0.000000 0.000000 0.000000 0.000000 -0.000000 0.000000 0.000000 -0.000000 0.000000 0.000000 -0.000000 0.000000 0.000000 -0.000000 0.000000 0.000000 -0.000000 0.000000 0.000000 -0.000000 0.000000 0.000000 -0.000000 0.000000 0.000000 -0.000000 -0.000000 0.000000 -0.000001 
69.687317 92.956306 158.421738 -2.710787 45.180940 6.332901 -0.000000 0.000003 -0.000000 -23.721078 12.563119 -13.857309 35.067639 -10.967028 -0.468220 21.047052 0.141487 16.577605 -0.000001 0.000002 -0.000000 -0.000001 0.000000 0.000001 -34.528638 15.254109 4.790708 46.001174 -7.720579 -0.671770 42.883503 -6.892665 -7.240415 -0.000000 -0.000002 0.000003 0.000000 -0.000001 0.000000 3.302437 -1.503884 -5.838342 -1.777615 -1.610052 1.334798 -1.884349 -1.504941 1.444946 -1.383092 0.590049 0.390192 -1.383089 0.590055 0.390194 -0.000000 -0.000000 -0.000000 -1.382956 0.590030 0.390192 -1.383259 0.590049 0.390192 0.000001 0.000002 0.000000 -0.000000 -0.000000 -0.000000 1.160516 7.595435 -5.207532 4.128656 -7.551700 -69.228960 10.365315 -23.115701 4.027314 -3.787310 0.679956 -3.598799 10.930312 1.792581 25.581154 -6.193616 24.967736 -7.036320 0.000002 -0.000002 -0.000003 2.265744 2.757456 -6.607061 -2.151405 2.437964 -11.928498 0.000001 -0.000001 -0.000000 -1.977436 5.650759 -12.161681 0.258687 5.086288 -30.943810 -0.000000 -0.000001 0.000000 -4.962411 10.081679 -10.708752 4.009742 4.047069 -37.522279 0.000003 -0.000002 -0.000001 -6.454398 11.293248 -20.115805 10.728967 2.575293 -38.162709 -0.000001 -0.000003 -0.000002 -0.000001 0.000000 -0.000000 -0.000001 0.000000 -0.000000 -0.000002 0.000000 -0.000000 -0.000001 0.000001 0.000001 -0.000001 0.000000 0.000001 -0.000001 0.000001 0.000001 -0.000003 0.000001 0.000001 0.551899 5.166421 2.977070 2.826254 -0.847814 76.289887 9.960787 11.547386 -3.248023 0.025182 3.872494 -2.722507 10.760891 0.418759 -25.335991 -5.850201 -25.511996 7.043852 0.000003 0.000000 -0.000002 2.301337 -3.174565 8.286259 -2.151129 -2.430779 15.920812 -0.000001 0.000001 -0.000000 -1.974738 -5.651231 15.249511 0.269507 -5.094248 31.456224 -0.000001 0.000003 0.000002 -4.967242 -10.090647 13.367986 4.005155 -4.056061 38.130351 0.000001 0.000006 -0.000001 -6.447186 -11.298467 22.948676 10.719494 -2.567281 37.914121 0.000000 -0.000004 -0.000001 0.000000 -0.000000 0.000000 0.000000 0.000001 -0.000000 0.000000 0.000000 0.000000 0.000001 -0.000001 0.000000 0.000001 -0.000001 0.000001 0.000001 -0.000001 0.000000 0.000001 -0.000001 0.000001 -0.000000 -0.000001 0.000000 -0.000000 -0.000001 0.000000 -0.000000 -0.000001 0.000000 -0.000000 -0.000001 0.000000 -0.000000 -0.000001 0.000000 -0.000000 -0.000001 0.000000 -0.000000 -0.000001 0.000000 -0.000000 -0.000001 -0.000000 -0.000000 0.000003 -0.000000 
70.543869 93.514610 159.507660 -2.388451 46.178643 5.394544 -0.000000 0.000001 0.000000 -22.679049 11.846867 -13.221921 34.238912 -12.022414 -0.579598 20.919679 0.166530 16.735137 -0.000000 -0.000003 0.000001 0.000000 0.000005 0.000000 -35.990910 16.331759 4.936722 44.250514 -7.706158 -0.658870 40.206312 -6.099617 -4.450432 0.000002 0.000001 -0.000001 0.000000 0.000002 -0.000000 3.391416 -1.588950 -5.341799 -1.781113 -1.770516 1.443604 -1.883106 -1.652038 1.562385 -1.403213 0.542557 0.479114 -1.403213 0.542557 0.479114 -0.000000 -0.000001 -0.000000 -1.403214 0.542538 0.479114 -1.403213 0.542560 0.479114 -0.000000 -0.000001 -0.000001 -0.000000 -0.000001 -0.000000 1.118779 7.115242 -4.973794 3.357540 -8.132472 -69.115579 10.372757 -23.221340 4.056503 -3.800999 -0.070284 -3.042778 10.950725 2.056792 25.612127 -6.235117 24.902877 -7.035895 0.000001 -0.000001 -0.000001 2.262116 2.707683 -6.405983 -2.152487 2.438506 -11.450587 0.000000 -0.000000 0.000000 -1.978357 5.652205 -11.792029 0.258159 5.085921 -30.882451 -0.000000 -0.000001 -0.000002 -4.963206 10.083319 -10.390181 4.009832 4.046806 -37.449463 -0.000000 -0.000001 0.000000 -6.455439 11.295001 -19.776741 10.728685 2.575508 -38.192328 0.000002 -0.000005 -0.000001 -0.000000 -0.000000 0.000001 -0.000000 -0.000000 0.000001 -0.000001 -0.000000 0.000001 -0.000001 -0.000001 0.000002 -0.000001 -0.000001 0.000001 -0.000001 -0.000001 0.000002 -0.000002 -0.000000 0.000001 0.499423 4.835779 3.514560 3.199686 -1.335499 75.878621 10.075128 11.516162 -3.432981 -0.002048 3.871207 -2.507606 10.739663 0.683861 -25.307864 -5.808698 -25.576948 7.044979 0.000001 0.000000 -0.000002 2.307814 -3.224465 8.487372 -2.151008 -2.431811 16.398755 -0.000003 0.000001 -0.000001 -1.975070 -5.651998 15.619248 0.269527 -5.094099 31.517515 -0.000003 -0.000001 -0.000001 -4.967825 -10.091926 13.686676 4.005388 -4.056309 38.203126 -0.000002 0.000003 -0.000002 -6.448323 -11.300621 23.287772 10.719651 -2.567320 37.884580 0.000002 0.000005 0.000000 0.000002 0.000001 0.000000 0.000001 0.000000 -0.000000 0.000001 0.000001 0.000000 -0.000001 0.000001 -0.000000 -0.000001 0.000001 -0.000000 -0.000001 0.000001 -0.000000 -0.000001 0.000001 -0.000000 0.000000 -0.000001 0.000000 0.000000 -0.000001 0.000000 0.000000 -0.000001 0.000000 0.000000 -0.000001 0.000000 0.000000 -0.000001 0.000000 0.000000 -0.000001 0.000000 0.000000 -0.000001 0.000000 0.000000 -0.000000 0.000000 -0.000000 0.000001 0.000000 
